<?xml version="1.0" standalone="no"?>
<!DOCTYPE svg PUBLIC "-//W3C//DTD SVG 20010904//EN"
 "http://www.w3.org/TR/2001/REC-SVG-20010904/DTD/svg10.dtd">
<svg version="1.0" xmlns="http://www.w3.org/2000/svg"
 width="403.000000pt" height="131.000000pt" viewBox="0 0 403.000000 131.000000"
 preserveAspectRatio="xMidYMid meet">

<g transform="translate(0.000000,131.000000) scale(0.100000,-0.100000)"
fill="#000000" stroke="none">
<path d="M2001 1181 c-26 -26 -27 -55 -1 -81 30 -30 62 -26 84 11 18 30 18 32
-1 58 -25 33 -56 38 -82 12z"/>
<path d="M3370 960 c-41 -41 -15 -110 41 -110 35 0 49 18 49 61 0 28 -6 42
-22 53 -30 21 -44 20 -68 -4z"/>
<path d="M110 940 c0 -11 9 -29 20 -40 19 -19 20 -33 20 -219 l0 -200 -25 -27
c-43 -46 -32 -55 78 -57 92 -2 97 -1 97 19 0 11 -9 29 -20 39 -15 14 -20 31
-20 71 0 44 5 58 26 79 14 14 27 25 28 23 1 -2 27 -38 59 -80 31 -43 57 -82
57 -87 0 -5 -7 -12 -16 -15 -9 -3 -14 -15 -12 -27 3 -21 8 -22 196 -25 166 -4
193 -2 198 11 4 9 -4 23 -20 36 -25 20 -26 24 -26 125 l0 104 33 20 c42 26 79
25 105 -3 20 -21 22 -34 22 -126 0 -93 -2 -104 -22 -120 -13 -11 -19 -24 -15
-34 5 -14 22 -17 97 -17 89 0 90 0 90 25 0 14 -8 29 -20 35 -18 10 -20 21 -20
131 0 122 -5 145 -43 187 -43 46 -143 48 -191 3 -29 -27 -36 -26 -36 4 0 24
-2 25 -75 25 -66 0 -75 -2 -75 -18 0 -10 11 -29 25 -42 24 -23 25 -28 25 -146
0 -113 -2 -125 -21 -143 -22 -20 -22 -20 -50 0 -15 10 -38 36 -50 57 -13 20
-49 74 -81 120 l-58 82 62 71 c33 39 82 87 109 106 29 21 49 43 49 54 0 17 -8
19 -100 19 -91 0 -100 -2 -100 -19 0 -10 7 -24 15 -31 8 -7 15 -17 15 -22 0
-7 -108 -140 -172 -213 -4 -5 -8 43 -8 106 l0 115 31 18 c51 30 32 41 -79 44
-97 3 -102 2 -102 -18z"/>
<path d="M2040 948 c0 -18 12 -33 35 -46 11 -6 30 -38 43 -74 13 -34 33 -88
44 -118 11 -30 36 -93 55 -140 19 -47 42 -104 51 -127 14 -35 21 -42 51 -47
39 -6 51 -1 51 20 0 8 8 33 18 57 11 23 29 69 41 102 12 33 31 80 41 105 10
25 30 78 46 118 18 48 39 83 61 102 57 50 47 60 -61 60 -57 0 -97 -4 -102 -11
-3 -6 6 -23 21 -39 l27 -28 -46 -129 c-63 -178 -69 -193 -78 -193 -4 0 -8 1
-8 3 0 1 -11 34 -26 72 -53 147 -83 246 -78 259 3 8 12 17 20 20 8 3 14 15 14
26 0 19 -6 20 -110 20 -81 0 -110 -3 -110 -12z"/>
<path d="M1247 800 c-53 -10 -118 -60 -145 -111 -34 -63 -28 -152 14 -211 55
-80 189 -117 269 -76 95 50 150 187 111 279 -15 35 -66 89 -101 107 -30 14
-105 21 -148 12z m117 -110 c10 -10 20 -38 23 -63 14 -122 -79 -200 -155 -129
-63 59 -48 198 23 213 41 9 86 0 109 -21z"/>
<path d="M2686 800 c-43 -13 -89 -49 -116 -89 -19 -29 -24 -50 -24 -107 -1
-82 12 -113 68 -166 39 -37 110 -62 152 -53 10 2 31 6 47 10 15 3 46 22 68 42
l40 36 -27 28 -26 28 -37 -24 c-52 -34 -83 -39 -120 -21 -32 17 -66 69 -56 86
4 6 67 10 147 10 l140 0 -7 48 c-18 125 -134 206 -249 172z m105 -99 c51 -51
41 -62 -53 -59 -77 3 -83 5 -80 23 4 28 48 65 78 65 15 0 38 -12 55 -29z"/>
<path d="M3033 797 c-69 -11 -76 -22 -44 -62 16 -21 18 -38 13 -147 -4 -103
-7 -126 -23 -144 -35 -38 -18 -49 86 -51 84 -1 95 1 95 16 0 10 -11 28 -25 41
-23 22 -25 30 -25 115 0 78 3 94 20 113 24 26 52 28 70 7 20 -24 43 -17 68 19
26 39 20 63 -22 91 -28 19 -67 7 -108 -33 l-28 -26 0 37 c0 20 -3 36 -7 35 -5
0 -36 -6 -70 -11z"/>
<path d="M3662 801 c-18 -5 -50 -21 -72 -36 -42 -29 -42 -41 -2 -87 14 -17 17
-16 49 12 56 49 143 38 143 -19 0 -27 -3 -28 -55 -34 -68 -7 -159 -47 -175
-77 -16 -31 -17 -84 -1 -114 31 -57 141 -75 203 -32 l35 23 21 -24 c18 -21 29
-24 74 -21 50 3 53 5 56 31 2 19 -2 29 -15 34 -30 11 -33 23 -33 141 0 129
-11 159 -66 185 -41 20 -119 28 -162 18z m118 -260 c0 -47 -26 -71 -76 -71
-42 0 -60 23 -48 58 7 21 20 30 54 39 69 18 70 17 70 -26z"/>
<path d="M1490 792 c0 -5 9 -18 20 -30 12 -12 43 -86 70 -165 27 -78 54 -157
60 -174 10 -26 17 -33 40 -33 24 0 30 8 56 67 16 36 36 82 44 101 l16 35 37
-81 c20 -45 37 -88 37 -97 0 -10 10 -15 30 -15 17 0 33 0 38 -1 4 0 15 21 25
48 10 26 26 66 36 88 10 22 38 84 61 138 24 53 47 97 51 97 5 0 9 7 9 15 0 12
-16 15 -86 15 -89 0 -91 -2 -56 -43 14 -15 14 -25 4 -64 -7 -25 -22 -68 -34
-96 l-22 -50 -33 73 c-38 84 -39 96 -13 130 35 45 28 50 -75 50 -103 0 -108
-3 -75 -50 33 -47 33 -79 1 -145 -18 -37 -32 -54 -35 -45 -46 138 -54 175 -40
197 25 39 18 43 -76 43 -49 0 -90 -4 -90 -8z"/>
<path d="M3363 793 c-43 -3 -53 -7 -53 -22 0 -10 10 -25 22 -33 21 -14 22 -21
19 -149 -1 -103 -5 -137 -16 -145 -8 -6 -15 -20 -15 -30 0 -17 8 -19 90 -19
100 0 122 14 76 48 l-26 19 0 169 0 169 -22 -2 c-13 -1 -47 -3 -75 -5z"/>
<path d="M2006 209 c-32 -25 -34 -62 -4 -83 32 -22 64 -20 82 6 22 31 20 45
-9 73 -29 30 -35 31 -69 4z"/>
</g>
</svg>
